<svg width="135" height="38" viewBox="0 0 135 38" fill="none" xmlns="http://www.w3.org/2000/svg">
<path fill-rule="evenodd" clip-rule="evenodd" d="M134.657 8.58995V5.29395H133.441V8.58995H134.657ZM50.544 33.9339V26.0939H50.608C51.1627 26.9046 51.872 27.5179 52.736 27.9339C53.6 28.3499 54.544 28.5579 55.568 28.5579C56.784 28.5579 57.8453 28.3233 58.752 27.8539C59.6587 27.3846 60.416 26.7553 61.024 25.9659C61.632 25.1766 62.0853 24.2699 62.384 23.2459C62.6827 22.2219 62.832 21.1553 62.832 20.0459C62.832 18.8726 62.6827 17.7473 62.384 16.6699C62.0853 15.5926 61.6267 14.6486 61.008 13.8379C60.3893 13.0273 59.6107 12.3766 58.672 11.8859C57.7333 11.3953 56.6133 11.1499 55.312 11.1499C54.288 11.1499 53.3493 11.3526 52.496 11.7579C51.6427 12.1633 50.9387 12.8139 50.384 13.7099H50.32V11.5979H46V33.9339H50.544ZM54.352 25.1659C53.6267 25.1659 53.008 25.0166 52.496 24.7179C51.984 24.4193 51.5733 24.0299 51.264 23.5499C50.9547 23.0699 50.7307 22.5099 50.592 21.8699C50.4533 21.2299 50.384 20.5793 50.384 19.9179C50.384 19.2353 50.448 18.5739 50.576 17.9339C50.704 17.2939 50.9227 16.7286 51.232 16.2379C51.5413 15.7473 51.9467 15.3473 52.448 15.0379C52.9493 14.7286 53.5733 14.5739 54.32 14.5739C55.0453 14.5739 55.6587 14.7286 56.16 15.0379C56.6613 15.3473 57.072 15.7526 57.392 16.2539C57.712 16.7553 57.9413 17.3259 58.08 17.9659C58.2187 18.6059 58.288 19.2566 58.288 19.9179C58.288 20.5793 58.224 21.2299 58.096 21.8699C57.968 22.5099 57.7493 23.0699 57.44 23.5499C57.1307 24.0299 56.7253 24.4193 56.224 24.7179C55.7227 25.0166 55.0987 25.1659 54.352 25.1659ZM73.2418 28.1099C72.2605 28.4086 71.2578 28.5579 70.2338 28.5579C69.4445 28.5579 68.7085 28.4619 68.0258 28.2699C67.3432 28.0779 66.7458 27.7793 66.2338 27.3739C65.7218 26.9686 65.3218 26.4566 65.0338 25.8379C64.7458 25.2193 64.6018 24.4833 64.6018 23.6299C64.6018 22.6913 64.7672 21.9179 65.0978 21.3099C65.4285 20.7019 65.8552 20.2166 66.3778 19.8539C66.9005 19.4913 67.4978 19.2193 68.1698 19.0379C68.8418 18.8566 69.5192 18.7126 70.2018 18.6059C70.8845 18.4993 71.5565 18.4139 72.2178 18.3499C72.8792 18.2859 73.4658 18.1899 73.9778 18.0619C74.4898 17.9339 74.8952 17.7473 75.1938 17.5019C75.4925 17.2566 75.6312 16.8993 75.6098 16.4299C75.6098 15.9393 75.5298 15.5499 75.3698 15.2619C75.2098 14.9739 74.9965 14.7499 74.7298 14.5899C74.4632 14.4299 74.1538 14.3233 73.8018 14.2699C73.4498 14.2166 73.0712 14.1899 72.6658 14.1899C71.7698 14.1899 71.0658 14.3819 70.5538 14.7659C70.0418 15.1499 69.7432 15.7899 69.6578 16.6859H65.1138C65.1778 15.6193 65.4445 14.7339 65.9138 14.0299C66.3832 13.3259 66.9805 12.7606 67.7058 12.3339C68.4312 11.9073 69.2472 11.6033 70.1538 11.4219C71.0605 11.2406 71.9725 11.1499 72.8898 11.1499C73.7218 11.1499 74.5645 11.2086 75.4178 11.3259C76.2712 11.4433 77.0498 11.6726 77.7538 12.0139C78.4578 12.3553 79.0338 12.8299 79.4818 13.4379C79.9298 14.0459 80.1538 14.8513 80.1538 15.8539V24.4619C80.1538 25.2086 80.1965 25.9233 80.2818 26.6059C80.3672 27.2886 80.5165 27.8006 80.7298 28.1419H76.1218C76.0365 27.8859 75.9672 27.6246 75.9138 27.3579C75.8605 27.0913 75.8232 26.8193 75.8018 26.5419C75.0765 27.2886 74.2232 27.8113 73.2418 28.1099ZM71.9298 25.5499C71.5672 25.5499 71.2152 25.5179 70.8738 25.4539C70.5325 25.3899 70.2338 25.2779 69.9778 25.1179C69.7218 24.9579 69.5192 24.7393 69.3698 24.4619C69.2205 24.1846 69.1458 23.8433 69.1458 23.4379C69.1458 23.0113 69.2205 22.6593 69.3698 22.3819C69.5192 22.1046 69.7165 21.8753 69.9618 21.6939C70.2072 21.5126 70.4952 21.3686 70.8258 21.2619C71.1565 21.1553 71.4925 21.0699 71.8338 21.0059C72.1965 20.9419 72.5592 20.8886 72.9218 20.8459C73.2845 20.8033 73.6312 20.7499 73.9618 20.6859C74.2925 20.6219 74.6018 20.5419 74.8898 20.4459C75.1778 20.3499 75.4178 20.2166 75.6098 20.0459V21.7419C75.6098 21.9979 75.5832 22.3393 75.5298 22.7659C75.4765 23.1926 75.3325 23.6139 75.0978 24.0299C74.8632 24.4459 74.5005 24.8033 74.0098 25.1019C73.5192 25.4006 72.8258 25.5499 71.9298 25.5499ZM89.5397 33.0699C88.665 33.6459 87.449 33.9339 85.8917 33.9339C85.4224 33.9339 84.9584 33.9179 84.4997 33.8859C84.041 33.8539 83.577 33.8166 83.1077 33.7739V30.0299C83.5344 30.0726 83.9717 30.1153 84.4197 30.1579C84.8677 30.2006 85.3157 30.2113 85.7637 30.1899C86.361 30.1259 86.8037 29.8913 87.0917 29.4859C87.3797 29.0806 87.5237 28.6326 87.5237 28.1419C87.5237 27.7793 87.4597 27.4379 87.3317 27.1179L81.5397 11.5979H86.3717L90.1157 22.9259H90.1797L93.7957 11.5979H98.4997L91.5877 30.1899C91.097 31.5339 90.4144 32.4939 89.5397 33.0699ZM104.59 28.5259C105.379 28.5259 106.104 28.4299 106.766 28.2379C107.427 28.0459 108.019 27.7793 108.542 27.4379C109.064 27.0966 109.507 26.7073 109.87 26.2699C110.232 25.8326 110.51 25.3686 110.702 24.8779H110.766V25.7419C110.766 26.0833 110.792 26.3979 110.846 26.6859C110.899 26.9739 111 27.2246 111.15 27.4379C111.299 27.6513 111.518 27.8219 111.806 27.9499C112.094 28.0779 112.483 28.1419 112.974 28.1419C113.315 28.1419 113.646 28.0993 113.966 28.0139V26.9899C113.582 27.0539 113.283 27.0859 113.07 27.0859C112.792 27.0859 112.579 27.0273 112.43 26.9099C112.28 26.7926 112.174 26.6379 112.11 26.4459C112.046 26.2539 112.008 26.0406 111.998 25.8059C111.987 25.5713 111.982 25.3366 111.982 25.1019V15.5339C111.982 14.2753 111.528 13.2566 110.622 12.4779C109.715 11.6993 108.27 11.3099 106.286 11.3099C104.302 11.3099 102.771 11.7633 101.694 12.6699C100.616 13.5766 100.035 14.9366 99.9495 16.7499H101.166C101.251 15.2779 101.747 14.1793 102.654 13.4539C103.56 12.7286 104.75 12.3659 106.222 12.3659C107.054 12.3659 107.758 12.4513 108.334 12.6219C108.91 12.7926 109.379 13.0273 109.742 13.3259C110.104 13.6246 110.371 13.9659 110.542 14.3499C110.712 14.7339 110.798 15.1499 110.798 15.5979C110.798 16.1739 110.766 16.6539 110.702 17.0379C110.638 17.4219 110.478 17.7366 110.222 17.9819C109.966 18.2273 109.587 18.4193 109.086 18.5579C108.584 18.6966 107.896 18.7979 107.022 18.8619L105.134 19.0219C104.472 19.0859 103.784 19.1926 103.07 19.3419C102.355 19.4913 101.704 19.7419 101.118 20.0939C100.531 20.4459 100.046 20.9259 99.6615 21.5339C99.2775 22.1419 99.0855 22.9259 99.0855 23.8859C99.0855 25.4646 99.5655 26.6326 100.526 27.3899C101.486 28.1473 102.84 28.5259 104.59 28.5259ZM101.454 26.5899C102.222 27.1766 103.278 27.4699 104.622 27.4699C106.008 27.4699 107.107 27.2193 107.918 26.7179C108.728 26.2166 109.347 25.6406 109.774 24.9899C110.2 24.3393 110.472 23.7099 110.59 23.1019C110.707 22.4939 110.766 22.0833 110.766 21.8699V18.7979C110.467 19.1606 110.014 19.4059 109.406 19.5339C108.798 19.6619 108.12 19.7579 107.374 19.8219L105.326 20.0139C104.728 20.0779 104.131 20.1686 103.534 20.2859C102.936 20.4033 102.398 20.6006 101.918 20.8779C101.438 21.1553 101.048 21.5339 100.75 22.0139C100.451 22.4939 100.302 23.1179 100.302 23.8859C100.302 25.1019 100.686 26.0033 101.454 26.5899ZM117.111 34.0299V24.7179H117.175C117.666 26.0619 118.445 27.0326 119.511 27.6299C120.578 28.2273 121.794 28.5259 123.159 28.5259C124.418 28.5259 125.511 28.3126 126.439 27.8859C127.367 27.4593 128.135 26.8673 128.743 26.1099C129.351 25.3526 129.805 24.4513 130.103 23.4059C130.402 22.3606 130.551 21.2086 130.551 19.9499C130.551 18.7979 130.402 17.6993 130.103 16.6539C129.805 15.6086 129.351 14.6913 128.743 13.9019C128.135 13.1126 127.367 12.4833 126.439 12.0139C125.511 11.5446 124.418 11.3099 123.159 11.3099C122.263 11.3099 121.469 11.4486 120.775 11.7259C120.082 12.0033 119.49 12.3499 118.999 12.7659C118.509 13.1819 118.114 13.6353 117.815 14.1259C117.517 14.6166 117.303 15.0646 117.175 15.4699H117.111V11.6939H115.895V34.0299H117.111ZM120.263 26.8459C121.042 27.2619 122.007 27.4699 123.159 27.4699C124.226 27.4699 125.149 27.2673 125.927 26.8619C126.706 26.4566 127.346 25.9126 127.847 25.2299C128.349 24.5473 128.722 23.7526 128.967 22.8459C129.213 21.9393 129.335 20.9739 129.335 19.9499C129.335 19.0113 129.218 18.0886 128.983 17.1819C128.749 16.2753 128.386 15.4646 127.895 14.7499C127.405 14.0353 126.77 13.4593 125.991 13.0219C125.213 12.5846 124.269 12.3659 123.159 12.3659C122.071 12.3659 121.143 12.5793 120.375 13.0059C119.607 13.4326 118.983 13.9979 118.503 14.7019C118.023 15.4059 117.677 16.2113 117.463 17.1179C117.25 18.0246 117.143 18.9686 117.143 19.9499C117.143 20.9313 117.239 21.8753 117.431 22.7819C117.623 23.6886 117.949 24.4886 118.407 25.1819C118.866 25.8753 119.485 26.4299 120.263 26.8459ZM133.441 11.6939H134.657V28.1419H133.441V11.6939Z" fill="#36536B"/>
<circle cx="19.1421" cy="4.99996" r="3" transform="rotate(45 19.1421 4.99996)" fill="#36536B"/>
<circle cx="26.2133" cy="12.0713" r="3" transform="rotate(45 26.2133 12.0713)" fill="#36536B"/>
<circle cx="33.2843" cy="19.1421" r="3" transform="rotate(45 33.2843 19.1421)" fill="#36536B"/>
<circle cx="12.071" cy="12.0713" r="3" transform="rotate(45 12.071 12.0713)" fill="#36536B"/>
<circle opacity="0.5" cx="19.1421" cy="19.1421" r="3" transform="rotate(45 19.1421 19.1421)" fill="#36536B"/>
<circle opacity="0.5" cx="26.2133" cy="26.2133" r="3" transform="rotate(45 26.2133 26.2133)" fill="#36536B"/>
<circle cx="5" cy="19.1421" r="3" transform="rotate(45 5 19.1421)" fill="#36536B"/>
<circle opacity="0.5" cx="12.071" cy="26.2133" r="3" transform="rotate(45 12.071 26.2133)" fill="#36536B"/>
<circle opacity="0.25" cx="19.1421" cy="33.2841" r="3" transform="rotate(45 19.1421 33.2841)" fill="#36536B"/>
</svg>
